/* XPM */
static char *result[] = {
/* columns rows colors chars-per-pixel */
"32 32 96 2 ",
"   c #3D2022",
".  c #3C2E21",
"X  c #3C3121",
"o  c #401F20",
"O  c #432221",
"+  c #4B2725",
"@  c #4B2824",
"#  c #522A26",
"$  c #592C27",
"%  c #572B28",
"&  c #5C2E2A",
"*  c #573128",
"=  c #5D322A",
"-  c #5C3A2B",
";  c #612F2A",
":  c #63312B",
">  c #6A342D",
",  c #663B2D",
"<  c #6B3E2E",
"1  c #70362F",
"2  c #6B3530",
"3  c #753931",
"4  c #7B3B32",
"5  c #3C4C25",
"6  c #3C5826",
"7  c #376626",
"8  c #376925",
"9  c #386927",
"0  c #3F632A",
"q  c #3B6F29",
"w  c #367328",
"e  c #39742A",
"r  c #367C2E",
"t  c #397B29",
"y  c #424B26",
"u  c #584E2B",
"i  c #4F5D2A",
"p  c #515F2B",
"a  c #64462E",
"s  c #7A462F",
"d  c #60552E",
"f  c #7E4434",
"g  c #784834",
"h  c #4D612A",
"j  c #43742A",
"k  c #4E762E",
"l  c #467D2D",
"z  c #813E36",
"x  c #864036",
"c  c #884036",
"v  c #854C33",
"b  c #884F33",
"n  c #874138",
"m  c #8F493A",
"M  c #8B5134",
"N  c #925536",
"B  c #9A5A36",
"V  c #99543B",
"C  c #9A5A39",
"Z  c #A35B3D",
"A  c #A95F3E",
"S  c #AE663B",
"D  c #B2673C",
"F  c #B66B3E",
"G  c #BB6D3D",
"H  c #C8763F",
"J  c #B26641",
"K  c #BC6D41",
"L  c #C77643",
"P  c #C87640",
"I  c #36832C",
"U  c #328A2C",
"Y  c #2F952D",
"T  c #2E9B2D",
"R  c #33972D",
"E  c #349E2F",
"W  c #2E9231",
"Q  c #2F9930",
"!  c #319434",
"~  c #329A33",
"^  c #3A9E37",
"/  c #3AA533",
"(  c #3DA932",
")  c #438B2E",
"_  c #468330",
"`  c #4B8B31",
"'  c #459631",
"]  c #4E9431",
"[  c #449933",
"{  c #489C32",
"}  c #41A435",
"|  c #49AD35",
" . c #4EA63A",
".. c #4DAD3A",
"X. c #47B136",
"o. c #51B138",
/* pixels */
"o./ Q { 9 7 9 w o./ Q | ~ ( 8 j j q Y | T T ~ T ` q 8 j I ( E | ",
"^ ~ } r       5 ^ ~ / ! X.^   O     [ ! T T T T 0       ) E T W ",
"..' l i > > > a _ _ o.Y e e > > > > k q R T t t d > > > p w ' / ",
"T `   & x c n 4   y /  .  o z c c x O   U E 6   3 x x x :   e W ",
"t h : f Z Z Z V ; - ] l ; : Z Z Z Z 1 : j _ u = m Z Z Z v : p ` ",
"  : x Z P P H K z 4 O O n c P P H H m z #   3 x F H H P A z 2   ",
"  $ 3 V H P H G 3 1   O 3 3 P P H H v 3 +   > 3 D H P P Z 3 ;   ",
"      v P H P F       O   o L P H H -           S H P P N       ",
"  # , N P H H G , ,   O < < P P P P g , @   = , D H P P V , * O ",
"  M H H H P P H P K   @ P P P P P P P P ,   S P H H P P H H B   ",
"  M H H P P P P H G   @ H P H H P P P P a o S P H P P H P P B   ",
"  M H H P P P P H F   @ H H L H H P P P < o D P P P P P P H B   ",
"  M P H P H P P H G   @ H H H L H P P P <   D P H P P P P H B   ",
"  M P P P P P P P G   @ P P H L P P P P a   D P P P P P P P C   ",
"  b H H P P P P P G   @ P H P L P P P P ,   S H P P P H P H B   ",
"  b H H P P P P P G   @ P P P L P P P P <   S P P P P P P H B   ",
"  M H H H H H L H G   @ P P P P P P P P <   S H L H P P P H B   ",
"  M H H L H H H H F   @ P P P P P P P P <   S H H H P P H H B   ",
"  M H H H H H H H G   @ P P P P H P P P <   S P L H L H P P B   ",
"  b H H H H L H H G   @ P P P P H P P P a   D P H H H H P H B   ",
"  b H H H H H H H G   @ P P P P H P H P a   S P P P P P P H B   ",
"  M P P L H L H H G   @ P P P P P H H H <   S P P P P P P H B   ",
"o b H H H H H H H G   @ P P P P H P P H <   S P P P P P P H B   ",
"o a B S L H H G B N   O C B P P H P Z B *   M B G P P P S B s   ",
"o     b L H P F o         o P P H H -         o S P P P N       ",
"O + & m P P P F & $     = & P H H H 3 & O   % & S P L P V & #   ",
"  : z Z H P P G c z   O c x L H H P m c #   4 c D P L P A x >   ",
"  : z Z K K K J z f   O x c K K K K m c #   3 c A K K K Z x >   ",
"  > n z x z c c x 4   O n x x x x n c c %   3 z n x n n z z 1 o ",
"  ; z z z z z z x 4   O 4 x 4 z f 4 z z +   3 z z z z z z z > O ",
"o o       O                                                     ",
"X X . X X . X . X X X X X X X . X X . X X X X . X X X X X . X . "
};
