/* XPM */
static char *f914376b8de94fd1f67da45c1e5fe981pp8803LRvL71ppeo[] = {
/* columns rows colors chars-per-pixel */
"25 24 96 2 ",
"   c None",
".  c black",
"X  c #010000",
"o  c #060602",
"O  c #060603",
"+  c #080601",
"@  c #111213",
"#  c #111528",
"$  c #1A2127",
"%  c #1B2327",
"&  c #1C232D",
"*  c #212A2E",
"=  c #323937",
"-  c #2E3840",
";  c #2F3940",
":  c #26304F",
">  c #313B41",
",  c #313D4E",
"<  c #283250",
"1  c #313C64",
"2  c #323E65",
"3  c #333F66",
"4  c #3C4445",
"5  c #3D4C55",
"6  c #34406B",
"7  c #34406C",
"8  c #34416D",
"9  c #35416D",
"0  c #36436D",
"q  c #36436E",
"w  c #37446E",
"e  c #37446F",
"r  c #38456F",
"t  c #3C4A6D",
"y  c #384570",
"u  c #3A4871",
"i  c #3B4972",
"p  c #3C4A72",
"a  c #3D4C74",
"s  c #485861",
"d  c #404F74",
"f  c #425278",
"g  c #43537A",
"h  c #556975",
"j  c #576B7F",
"k  c #586D7F",
"l  c #5D717E",
"z  c #4B5D81",
"x  c #526586",
"c  c #536787",
"v  c #53678A",
"b  c #546788",
"n  c #546888",
"m  c #556989",
"M  c #576B8B",
"N  c #566A8C",
"B  c #596D88",
"V  c #5A6F8D",
"C  c #5D7292",
"Z  c #5C7392",
"A  c #5D7392",
"S  c #5D7492",
"D  c #657B8A",
"F  c #657C8A",
"G  c #667C8B",
"H  c #677E8B",
"J  c #677F8D",
"K  c #607790",
"L  c #607695",
"P  c #667E9B",
"I  c #798685",
"U  c #7C8F95",
"Y  c #728DA4",
"T  c #7995AE",
"R  c #899897",
"E  c #829AAE",
"W  c #809EB4",
"Q  c #97A6A4",
"!  c #83A1B5",
"~  c #83A2B5",
"^  c #84A2B5",
"/  c #8BA4B7",
"(  c #85A4BB",
")  c #86A5BA",
"_  c #86A6BB",
"`  c #8BA8B9",
"'  c #89A9BD",
"]  c #88A9BE",
"[  c #89A9BE",
"{  c #89AABE",
"}  c #8AAABE",
"|  c #90AFC1",
" . c #A8C0C5",
".. c #B6CFD6",
"X. c #B6D0D6",
"o. c #C0D4D3",
/* pixels */
"          . . . . . . . . . . . . . .             ",
"        . R Q U F F F F F F F F F D h .           ",
"      = I o...E L S S S S S S S S S B s @         ",
"    . 4  .../ M a p p p p p p p p u z K +         ",
"    . > ` | V r w w 6 w 9 w 9 w w 9 u t o         ",
"    . ; ~ ] c 6 w w w w r w w w w w w 2 O         ",
"    . ; ^ ] n 9 w w w w w w w w w w y 2 O         ",
"    . ; ^ ] c 9 w w w w w w w w w w r 2 O         ",
"    . ; ^ { c 9 w w w w w w w w w w r 2 o         ",
"    . ; ^ { c 9 w w w w w w w w w w r 2 O         ",
"    . ; ^ { c 9 w w w w w w w w w w r 2 O         ",
"    . = ^ { c 9 w w w w w w w w w w r 2 O         ",
"    . ; ^ { c 9 w w w w w w w w w w r 2 o         ",
"    . ; ^ { c 9 w w w w w w w w w w r 2 O         ",
"    . ; ^ { c 9 w w w w w w w w w w y 2 O         ",
"    . ; ^ ] c 6 w w w w w w w w w w r 2 O         ",
"    . ; ( ] M 9 w w w w w w w w w w r 2 o         ",
"    . ; ~ ] c 9 w w w w w w w w w w w 2 o         ",
"    . ; ^ ] c 9 w w w w w w w w w w y 2 .         ",
"    . ; ^ ] c 9 w w w w w w w w w w w 6 $ %       ",
"    . ; ^ ] n 6 w w w w w w w y r r 9 d k l 5     ",
"    . = ~ ] n 9 w w w w w w w 9 r 9 f P ( ] k #   ",
". * & , Y ] n 9 w w w w w w e e 9 9 b ] | T N : . ",
". J A p g T M 9 w w w w w w e y r 9 c ] ( v 3 < . "
};
