/* XPM */
static char *_709058a261d41cae47b5079942a8d44UtRKLt31AZzkZwmQ[] = {
/* columns rows colors chars-per-pixel */
"24 24 20 1 ",
"  c None",
". c #E47000",
"X c #A52A5D",
"o c #CF3977",
"O c #48D841",
"+ c #64F25D",
"@ c #70FF69",
"# c #F48B00",
"$ c #FFAF00",
"% c #4951D7",
"& c #727AFF",
"* c #E7518F",
"= c #F269A2",
"- c #CE3CDA",
"; c #E44BF1",
": c #F572FF",
"> c #FB88AF",
", c #FF9BC0",
"< c #FFADD6",
"1 c #F794FF",
/* pixels */
"                        ",
"       .       O        ",
"      .#.     O+O       ",
"      .$#.   O+@O       ",
"      .$#*****+@O       ",
"      .#*<<<<<*+O       ",
"      *,<<<<<<<,o       ",
"      o,<<<<;<<,o       ",
"      o>,<<;1-,>o       ",
"       X>,,-1->X        ",
"       X,<<-1-,X        ",
"       o<<-:1-<o        ",
"       *<*,<1:-=        ",
"       =,<<<<<,*        ",
"       =<<<<<<<=        ",
"       *<<<<<<<*        ",
"       o,<<<<<,o        ",
"        o,***<o         ",
"        %&% *<*         ",
"        %&% *,*         ",
"         %% %&%         ",
"            %&%         ",
"            %%          ",
"                        "
};
