/* XPM */
static char *result[] = {
/* columns rows colors chars-per-pixel */
"32 32 244 2 ",
"   c black",
".  c #346D2A",
"X  c #2A7C29",
"o  c #3D7D30",
"O  c gray37",
"+  c #5A6D58",
"@  c #30862F",
"#  c #2D992D",
"$  c #2D9A2D",
"%  c #2E9B2D",
"&  c #2E992E",
"*  c #2E9C2D",
"=  c #2F9D2D",
"-  c #2F9F2D",
";  c #339C2E",
":  c #319E2E",
">  c #309E2F",
",  c #339F2F",
"<  c #349F2F",
"1  c #308230",
"2  c #318B31",
"3  c #328A32",
"4  c #368E33",
"5  c #358B34",
"6  c #368B37",
"7  c #358E34",
"8  c #388A33",
"9  c #398238",
"0  c #3A8538",
"q  c #3B8939",
"w  c #2E9231",
"e  c #2F9930",
"r  c #339033",
"t  c #379033",
"y  c #309731",
"u  c #339731",
"i  c #319532",
"p  c #339433",
"a  c #319632",
"s  c #349432",
"d  c #379532",
"f  c #309134",
"g  c #369334",
"h  c #379136",
"j  c #329534",
"k  c #339534",
"l  c #319831",
"z  c #329A31",
"x  c #329B31",
"c  c #339832",
"v  c #329932",
"b  c #339932",
"n  c #369A31",
"m  c #319C30",
"M  c #339C31",
"N  c #339E30",
"B  c #369F32",
"V  c #319834",
"C  c #369B35",
"Z  c #359C34",
"A  c #399A37",
"S  c #3D9B37",
"D  c #389C35",
"F  c #3A9C34",
"G  c #389F34",
"H  c #399F36",
"J  c #3A9E37",
"K  c #3D913A",
"L  c #399638",
"P  c #3D983A",
"I  c #3C993A",
"U  c #31A22D",
"Y  c #37A230",
"T  c #36A132",
"R  c #34A332",
"E  c #37A530",
"W  c #37A134",
"Q  c #39A632",
"!  c #3CA336",
"~  c #3BA536",
"^  c #3CA932",
"/  c #3FA835",
"(  c #459037",
")  c #429A38",
"_  c #429B38",
"`  c #41A435",
"'  c #41AB33",
"]  c #47AC36",
"[  c #49AB35",
"{  c #4BA937",
"}  c #49AC35",
"|  c #4AAF36",
" . c #46A438",
".. c #47A738",
"X. c #4CA63A",
"o. c #4CA73A",
"O. c #4BAB39",
"+. c #4FAB3A",
"@. c #4DAD3A",
"#. c #4DAD3B",
"$. c #47B136",
"%. c #4CB13D",
"&. c #52B038",
"*. c #50B238",
"=. c #54B339",
"-. c #55B639",
";. c #58B73A",
":. c #458E41",
">. c #4B9140",
",. c #529F4C",
"<. c #568455",
"1. c #578656",
"2. c #528952",
"3. c #528E50",
"4. c #598559",
"5. c #63915B",
"6. c #618761",
"7. c #678765",
"8. c #638C62",
"9. c #669161",
"0. c #689368",
"q. c #6C9668",
"w. c #758C75",
"e. c #7E8E7E",
"r. c #7F907E",
"t. c #7C9B7B",
"y. c #6AA568",
"u. c #7EA37D",
"i. c gray51",
"p. c #819581",
"a. c #889A88",
"s. c #899C88",
"d. c #8D9B8D",
"f. c #8F988F",
"g. c #919E8E",
"h. c #919591",
"j. c #929E92",
"k. c #949E92",
"l. c #959C95",
"z. c #989B97",
"x. c #9A9B9A",
"c. c #80A280",
"v. c #87A782",
"b. c #89A089",
"n. c #8EAE8E",
"m. c #92A392",
"M. c #99A098",
"N. c #99A898",
"B. c #9CA99C",
"V. c #A2A1A1",
"C. c #A7A7A7",
"Z. c #A5AEA5",
"A. c #AAAAAA",
"S. c gray67",
"D. c #A9AFA9",
"F. c #ACACAC",
"G. c gray68",
"H. c #AFAFAF",
"J. c #A6B1A6",
"K. c #AEB0AE",
"L. c #AEB4AE",
"P. c #AEB6AE",
"I. c #ADBAAA",
"U. c #B1B1B1",
"Y. c #B2B2B2",
"T. c gray70",
"R. c #B4B4B4",
"E. c gray71",
"W. c #B6B5B5",
"Q. c #B6B6B6",
"!. c #B6BAB5",
"~. c #B6BAB6",
"^. c #B4BDB4",
"/. c #B9B9B9",
"(. c gray75",
"). c #C0C0C0",
"_. c #C1C1C1",
"`. c #C2C3C1",
"'. c gray76",
"]. c #C3C3C3",
"[. c gray77",
"{. c #C4C6C4",
"}. c #C5C7C4",
"|. c #C6C6C6",
" X c gray78",
".X c #C8C8C8",
"XX c #C8CAC8",
"oX c #C8CBC8",
"OX c #C9CAC9",
"+X c #CACACA",
"@X c #CBCBCB",
"#X c gray80",
"$X c #CDCDCD",
"%X c #CECECE",
"&X c gray81",
"*X c #CED3CE",
"=X c #CFD5CF",
"-X c #D0D0D0",
";X c gray82",
":X c #D1D2D1",
">X c gray83",
",X c #D5D5D5",
"<X c gray84",
"1X c #D7D7D7",
"2X c gray85",
"3X c #DAD9D9",
"4X c #D9DAD9",
"5X c #DADADA",
"6X c gray86",
"7X c gainsboro",
"8X c gray87",
"9X c #DFDFDF",
"0X c gray88",
"qX c #E1E1E1",
"wX c #E2E2E2",
"eX c gray89",
"rX c #E4E4E4",
"tX c gray90",
"yX c #E6E6E6",
"uX c #E7E7E7",
"iX c gray91",
"pX c #E9E9E9",
"aX c #EAEAEA",
"sX c gray92",
"dX c #ECECEC",
"fX c gray93",
"gX c #EEEEEE",
"hX c gray94",
"jX c #F1F0F0",
"kX c #F1F1F1",
"lX c gray95",
"zX c #F3F3F3",
"xX c #F4F4F4",
"cX c gray96",
"vX c #F6F6F6",
"bX c gray97",
"nX c #F8F8F8",
"mX c #F9F9F9",
"MX c gray98",
"NX c #FBFBFB",
"BX c gray99",
"VX c #FDFDFD",
"CX c #FEFEFE",
"ZX c white",
/* pixels */
"&.Q # } - # M # &.Q # } x ^ n >.v.:.v } - # M # &.Q # } x ^ ; | ",
"J V ` j = # % * J V ` j $.D d.cXCXcXs.j = # % * J V ` j $., e f ",
"@...*.# : $ % U @...*.# > w.fX&XnX%XqX3 : $ % U @...*.# > a ] E ",
"# +.! #.& = % N # +.! #.t >X].V.gXO CX9.& = % N # +.! #.B m R w ",
"- # M # x ^ ; | G # ;.< 5.VXlX9X%XjXCXZ.x ^ ; | G # ;.< &.Q # } ",
"= # % * $., e f -.' i W B.CXCXA.  ZXCX).%., e f -.' i W J V ` j ",
": $ % U > a ] d 0.X.| O.`.CXCX$Xi.CXCX6X7 a ] E T { | [ @...*.# ",
"& = % N B m g XXCXb.~ q aXdXCXCXMXCXCXNX<.m R w 5 N.t.I # +.! #.",
"x ^ ; | G # g.CXCX:X0 m.CX0XCXCXCXCXCXvX{.h ;.3.4XCXbX2.G # ;.< ",
"$., e f -._ <XCXBXBXMXVXCX2XCXCXCXCXCXtXCXoXP.fXCXCX0XJ.-.' i W ",
"> a ] E T o nXCX8XnXCXCXkXuXCXcXCXCXCXqXCXCXCXCXCXCX;X6XP { | [ ",
"B m R w b r.CXCX-XCXhXCXeXbXCXaXCXCXCX8XCXCXCXMXCXCX&XBX4.y ~ A ",
"- # M # C K.CXyX9XnXuXCX<XCXCXuXCXCXCXeXcXCXCX5XCXCX+XMX~./ ; | ",
"= # % *  .#XMXE.NX5XVXCX,XCXZXyXCXNXCXxX3XCXCX7XkXCX6XwXfX4 e f ",
": $ % U u e.x.2XCX'.CXCX,XCXMXpXCXuXCXmX@XCXCXpX<XCXiXY.p.k ] E ",
"& = % N B Z h.fXCXU.CXcX6XCXfXkXCXyXCXCXE.CXCXlX'.CXfX. H m R w ",
"&.Q # } - 2 Q.bXCXT.CX1XNXCXpXcXCXhXfXCXQ.vXCXcXH.CXiX( x ^ ; | ",
"J V ` j = X ].VXCXF.CX$XCXCXuXcXCXCX7XCX-X8XCXMXA.CX&X6 $., e f ",
"@...*.# : 1 _.mXCXS.zX<XCXCXuXsXCXCX5XCX6X&XCXBXA.CXk.# > a ] E ",
"# +.! #.& c C.hXCX_.W.mXCXCXqXkXCXCX1XCXpX>XCXnXY.-X8 #.B m R w ",
"- # M # x ^ 7.rXCX0XG.CXCXCX;XfXCXCX1XCXcX[.CXdX+ @ ;.< &.Q # } ",
"= # % * $., p l.NXgX2XCXCXCX%XpXCXCX7XMXNX|.MXj.=.' i W J V ` j ",
": $ % U > a ] F f.'.VXCXCXCX'.iXCXCXhXqXCXz.q.Y T { | [ @...*.# ",
"& = % N B m R w L M.CXCXCXCX XaXCXCXCX#XCX9 R w b y ~ A # +.! #.",
"x ^ ; | G # ;.< - !.CXCXCXCX(.lXCXCXCX.XyXr ;.< - # M # G # ;.< ",
"$., e f -.' i W = }.CXCXCXmXR.BXCXCXCX@XI.' i W = # % * -.' i W ",
"> a ] E T { | [ : ^.CXCXVX X%XCXCXCXCX/.K { | [ : $ % U T { | [ ",
"B m R w b y ~ A & c.CX*Xu.a.6XCXCXCXCXD.b y ~ A & = % N b y ~ A ",
"- # M # x ^ ; | &.S L.o.x ,.9XCXCXCXBX6.x ^ ; | &.Q # } x ^ ; | ",
"= # % * $., e f J V ) j $., n.bXCXCXOXs $., e f J V ` j $., e f ",
": $ % U > a ] E @...*.# > a ] y.=XzX1.U > a ] E @...*.# > a ] E ",
"& = % N B m R w # +.! #.B m R w l 8.z N B m R w # +.! #.B m R w "
};
