/* XPM */
static char *_1e4b12a934843a3fef3535216213230eY4VXwHogDK3cNMO[] = {
/* columns rows colors chars-per-pixel */
"24 24 190 2 ",
"   c None",
".  c #040000",
"X  c #060000",
"o  c #070000",
"O  c #060300",
"+  c #000400",
"@  c #000700",
"#  c #000304",
"$  c #020307",
"%  c #0A0017",
"&  c #2A2511",
"*  c #2D2345",
"=  c #3E3E60",
"-  c #3D3B6C",
";  c #5D3561",
":  c #413F71",
">  c #403D72",
",  c #4F5040",
"<  c #4E554E",
"1  c #6B695C",
"2  c #484064",
"3  c #45436A",
"4  c #46436E",
"5  c #5A586E",
"6  c #484677",
"7  c #666B65",
"8  c #716D75",
"9  c #6B7B7B",
"0  c #747A76",
"q  c #7B7B7B",
"w  c #C60005",
"e  c #D00007",
"r  c #ED000E",
"t  c #F80113",
"y  c #584F84",
"u  c #6E6E8A",
"i  c #7B7E85",
"p  c #7E7F84",
"a  c #70728B",
"s  c #778586",
"d  c #8584A3",
"f  c #A2A7AA",
"g  c #A2AEAE",
"h  c #B2A1A7",
"j  c #B0AAAA",
"k  c #B1B9AE",
"l  c #ACACB6",
"z  c #B0AFB4",
"x  c #A5B0B2",
"c  c #ADB1B4",
"v  c #AAB0BC",
"b  c #B0B4BF",
"n  c #BEBAB9",
"m  c #BCBDB8",
"M  c #D4A8BE",
"N  c #D7D7B8",
"B  c #F6F6A8",
"V  c #EBEBB1",
"C  c #FEFFB4",
"Z  c #A5AAC7",
"A  c #BCB9C0",
"S  c #B9C2C9",
"D  c #C7C5CA",
"F  c #D7CEC5",
"G  c #CFD1CC",
"H  c #C6DACF",
"J  c #DDDDC5",
"K  c #DDDEC6",
"L  c #CFC7D6",
"P  c #CBCCD1",
"I  c #CBCADA",
"U  c #D1D1D3",
"Y  c #D2D6D5",
"T  c #DBD0D6",
"R  c #D5DFD6",
"E  c #E1C5D2",
"W  c #FBDDDC",
"Q  c #F6F6CF",
"!  c #F6E9DE",
"~  c #FFEBDE",
"^  c #FEFFD6",
"/  c #DAD5E2",
"(  c #DEDFF1",
")  c #DDDEF3",
"_  c #F8D6FA",
"`  c #E9E6EA",
"'  c #FEE9EE",
"]  c #FFFFE3",
"[  c #FFFFEA",
"{  c #F9FFEC",
"}  c #FFFFEC",
"|  c #FEFFEF",
" . c #EBECF1",
".. c #EDEEF0",
"X. c #EFEFF1",
"o. c #EBEEF5",
"O. c #EAECF8",
"+. c #EEFBF4",
"@. c #F4F6F3",
"#. c #F7F8F3",
"$. c #F8FBF2",
"%. c #FBFDF0",
"&. c #FCFFF1",
"*. c #FFFEF1",
"=. c #FEFFF1",
"-. c #FCFCF2",
";. c #FFFFF3",
":. c #FAF9F5",
">. c #F9FAF5",
",. c #F9F9F7",
"<. c #FAFBF6",
"1. c #FBFCF6",
"2. c #FFFFF5",
"3. c #FFFDF7",
"4. c #FFFFF6",
"5. c #FFFFF7",
"6. c #F0F0FA",
"7. c #F3F3FB",
"8. c #F6F6F8",
"9. c #FFF6F8",
"0. c #FFF7F8",
"q. c #FBF0FF",
"w. c azure",
"e. c #F2FFFF",
"r. c #F7FFFD",
"t. c #F5FEFF",
"y. c #F4FFFF",
"u. c #F7FFFF",
"i. c #FAFAF8",
"p. c #FBFBF9",
"a. c #FBFBFB",
"s. c #FCFBF9",
"d. c #FAFCF9",
"f. c #FBFDFA",
"g. c #FAFCFB",
"h. c #FCFDF8",
"j. c #FDFEF8",
"k. c #FDFEF9",
"l. c #FDFFF9",
"z. c #FFFFF8",
"x. c #FCFCFA",
"c. c #FFFDFA",
"v. c #FFFCFB",
"b. c #FCFEFB",
"n. c #FCFFFB",
"m. c #FEFFFA",
"M. c #FFFFFA",
"N. c #FFFEFB",
"B. c #FEFFFB",
"V. c #FFFFFB",
"C. c #F9F8FE",
"Z. c #FAFAFF",
"A. c #FBFAFF",
"S. c #FFFBFC",
"D. c #FCF9FF",
"F. c #FDF9FF",
"G. c #FFF8FE",
"H. c #FFF9FF",
"J. c #FCFBFF",
"K. c #FFFAFF",
"L. c #FFFBFF",
"P. c #F9FDFC",
"I. c #FBFDFC",
"U. c #FBFFFC",
"Y. c #FBFCFF",
"T. c #F9FFFF",
"R. c #FAFFFF",
"E. c #FBFFFF",
"W. c gray99",
"Q. c #FEFCFD",
"!. c #FDFFFC",
"~. c #FCFEFD",
"^. c #FEFEFC",
"/. c #FFFFFC",
"(. c #FEFFFD",
"). c #FFFFFD",
"_. c #FCFCFE",
"`. c #FDFCFF",
"'. c #FDFDFF",
"]. c #FFFCFF",
"[. c #FEFDFF",
"{. c #FFFDFF",
"}. c #FCFEFF",
"|. c #FCFFFF",
" X c #FEFEFE",
".X c #FFFFFE",
"XX c #FEFEFF",
"oX c #FFFEFF",
"OX c #FEFFFF",
"+X c white",
/* pixels */
"                                                ",
"                      ~ W E M                   ",
"                  ' +XB.B.d.X.P a 2 ;           ",
"                _ X.B.B.B.+X_.+Xo.) = 4         ",
"                / +X8.+X+X+X+XC.d.+X) 4         ",
"              q.+X+X,.B.B.,.+X+XB.B.6.u -       ",
"              R.B.:.B.,.+X1.B.3.+XB.d.I 3 >     ",
"            +X+Xp.+XU l +X+X+X+XD m B. .d 6     ",
"            +Xd.H.H 1 % A H.%.T , * n 3.Z y     ",
"            @.+Xs.c X @ s B.B.g # @ 0 H.v       ",
"          O.+X+XB.l $ r p =.H.x # t q u.j       ",
"          _.B.B.u.h # w i { H.f X e 9 R.k       ",
"          6.1.+Xu.F 7 X v 3.d.Y < & S B.!       ",
"          H.B.+X+X=.R L +X9.,.+XG ` +X+X+X      ",
"          _.3.B.u.H.B.+.+Xw.0.+XH.u.R.+X3.      ",
"          +XB.B.0.R.+X] R.H.s.w.+X| H.+X3.      ",
"          B.:.| d.+X_.+X+XH.3.{ R.R.+X+XJ       ",
"          +X+X+X+X+XB.@.B.+X_.+X+XB.+XB.J       ",
"          +XC.H.+X+XB.B.1.+X+XH.s.B.H.B.N       ",
"            H.B.3.3.s.+X+X+XB.B.+XB.B.B.V       ",
"              +X+X+X+X+X+X,.B.+X+X+X+X=.B       ",
"                    +X+XB.d.+X+X      | C       ",
"                      +XB.+X[         ^ Q       ",
"                                      8 5       "
};
