/* XPM */
static char *a54f3a3487bf401aa1f275857e04a893YnJsA4Y93Oa4bgjV[] = {
/* columns rows colors chars-per-pixel */
"24 24 128 2 ",
"   c #2E241E",
".  c #332A24",
"X  c #362C26",
"o  c #382E28",
"O  c #393029",
"+  c #3C312B",
"@  c #3C322C",
"#  c #3E332D",
"$  c #3E342E",
"%  c #3E3433",
"&  c #40362F",
"*  c #41362F",
"=  c #413630",
"-  c #433932",
";  c #453A33",
":  c #463B34",
">  c #483D36",
",  c #493E37",
"<  c #4A3F38",
"1  c #4B403A",
"2  c #4C4139",
"3  c #4F443D",
"4  c #50453D",
"5  c #53473F",
"6  c #514840",
"7  c #544840",
"8  c #574B43",
"9  c #524944",
"0  c #584C44",
"q  c #584D44",
"w  c #594D45",
"e  c #5C4F47",
"r  c #524B48",
"t  c #5D5148",
"y  c #5E5248",
"u  c #60534B",
"i  c #62554C",
"p  c #63574E",
"a  c #64574E",
"s  c #64584E",
"d  c #625653",
"f  c #675A51",
"g  c #645A53",
"h  c #685A51",
"j  c #6A5C53",
"k  c #6A5D53",
"l  c #666156",
"z  c #6F6157",
"x  c #67615D",
"c  c #6F635A",
"v  c #706358",
"b  c #726459",
"n  c #74665B",
"m  c #74665D",
"M  c #776A5E",
"N  c #786B5F",
"B  c #6D6967",
"V  c #726663",
"C  c #706A67",
"Z  c #7A6962",
"A  c #796C60",
"S  c #7D6F63",
"D  c #786D68",
"F  c #7D7063",
"G  c #7E7164",
"H  c #7D756F",
"J  c #6C6973",
"K  c #777273",
"L  c #877770",
"P  c #817675",
"I  c #877A74",
"U  c #8B7B74",
"Y  c #868077",
"T  c #8F8977",
"R  c #838081",
"E  c #908883",
"W  c #928C8A",
"Q  c #958E89",
"!  c #949183",
"~  c #979494",
"^  c #9B9590",
"/  c #9B9897",
"(  c #9D9A99",
")  c #9F9C9C",
"_  c #A19C89",
"`  c #A8A793",
"'  c #A7A19B",
"]  c #AFAA9D",
"[  c #B8B59A",
"{  c #ABA6A3",
"}  c #ACA9A9",
"|  c #B1ACAA",
" . c #B2AFAC",
".. c #B4B1A2",
"X. c #BDBBBA",
"o. c #C0BFBE",
"O. c #C3C0BD",
"+. c #C7C5C7",
"@. c #CBC8C5",
"#. c #D0CFCF",
"$. c #D7D5C3",
"%. c #D9D7C5",
"&. c #DCDACC",
"*. c #D3D2D2",
"=. c #D4D3D1",
"-. c #D9D6D6",
";. c #DBDAD9",
":. c gainsboro",
">. c #E4E3E2",
",. c #E5E4E4",
"<. c #E6E5E7",
"1. c #E7E6E6",
"2. c #EBEAEA",
"3. c #ECEBEB",
"4. c #EEEDED",
"5. c #F0EFEE",
"6. c #F2F1F1",
"7. c #FAFAF4",
"8. c #F9FAF6",
"9. c #FDFEF7",
"0. c #F6FDFE",
"q. c #FBFCFB",
"w. c #FCFDF8",
"e. c #FEFEFA",
"r. c #FEFBFC",
"t. c gray99",
"y. c #FDFCFE",
"u. c white",
/* pixels */
"4 , + - 2 2 4 y f k m Z L U I = : % @ 4 s i h k ",
", , # f M N v f | ,.8.u.u.t.u.-.X.D o : i k 4 2 ",
", $ 7 z A G E 6.u.u.u.u.u.u.u.u.u.6.} > X ; , , ",
"7 3 e z b c 3.u.u.u.u.u.u.u.u.u.u.u.u.{ w : # % ",
"f M w i i *.u.u.u.u.u.u.u.u.u.u.u.u.u.4.r s N s ",
"4 z 7 X ( u.u.u.u.u.u.u.u.u.u.u.u.u.u.u.) s s 9 ",
"o , , o 2.u.u.u.u.u.u.u.u.u.u.u.u.u.u.u.@.% 2 t ",
"# o & H u.u.u.u.u.u.u.u.u.u.u.u.u.u.u.u.<.d F G ",
"7 : v ' u.u.u.u.u.u.u.u.u.u.u.u.u.u.u.u.u.V s 5 ",
"w < i Q u.u.u.u.u.u.u.u.u.u.u.u.u.u.u.u.u.W , , ",
"h o - R u.u.u.u.u.u.u.u.e.u.u.u.u.u.u.u.u.} t 2 ",
"i 3 & ~ u.u.u.u.u.u.u.u.9.r.u.u.u.u.u.u.u.@.n z ",
"i t 4 | u.u.u.u.u.u.u.u.8.r.u.u.u.u.u.u.u.=.s 8 ",
"7 # 8 +.u.u.u.u.u.u.u.u.r.8.u.u.u.u.u.u.u.=.$ . ",
"+ q F =.u.u.u.u.u.u.u.u.0.r.u.u.u.u.u.u.u.;.w w ",
"2 q c >.u.u.u.u.u.u.u.u.q.r.q.u.u.u.u.u.u.4.b 7 ",
"& , 9 6.u.u.u.u.u.r.u.u.q.e.e.u.u.u.u.u.u.5.m = ",
", & , u.u.u.u.u.u.e.8.e.u.q.t.u.u.u.u.u.u.3.Z w ",
"z w Q u.u.u.u.u.u.e.9.9.u.u.t.u.u.u.u.u.u.4.F F ",
"t ; ^ u.u.u.u.u.u.e.u.u.u.u.u.u.u.u.u.u.u.4.w f ",
"  # < 4.u.u.u.8.u.u.u.u.u.u.u.e.u.u.u.u.u.3., , ",
"; w : C *.>.o.B ;.u.u.u.u.q.2.` [ u.u.u.u.X.& & ",
"q e A s 5 = , u G ( ,.6.6.&.Y l T ] %.$...z w u ",
"; h A k h , u m A d x ! _ _ F t 9 t K J P m n G "
};
