/* XPM */
static char *bfa07a07e0f54cd69e266698a3bf65dbMjQntFEZqarAGpls[] = {
/* columns rows colors chars-per-pixel */
"27 23 25 1 ",
"  c None",
". c #C60000",
"X c #E47000",
"o c #CF3977",
"O c #FFAF00",
"+ c #3E46C6",
"@ c #4951D7",
"# c #727AFF",
"$ c #E72181",
"% c #E7518F",
"& c #F269A2",
"* c #CE3CDA",
"= c #E44BF1",
"- c #F572FF",
"; c #2D8DD0",
": c #3A9EE4",
"> c #51AFEF",
", c #78C8FF",
"< c #FB88AF",
"1 c #FEBFA8",
"2 c #F1BFBF",
"3 c #FF9BC0",
"4 c #FFADD6",
"5 c #F794FF",
"6 c #FFE1E1",
/* pixels */
"                           ",
"                      =    ",
"         X           =5=   ",
"        XOX          =5=   ",
"       X1OOX         =5=   ",
"     &&X11OX         =5=   ",
"    &4444444&        =5=   ",
"    &4$44444%        =5=   ",
"   .66$44444%       =5-*   ",
"   2666444443o%&&&&&55=    ",
"    26644443444444444-*    ",
"     22o<334444444444%     ",
"        o344444444444%     ",
"        o344444444443o     ",
"         o3444444444o      ",
"          %3%%%%%%%3%      ",
"         %33%>;  @##@+     ",
"        :,,%;;   @#@++     ",
"        :::      @@@       ",
"                           ",
"                           ",
"                           ",
"                           "
};
