/* XPM */
static char *right1659376992__1_1659377057[] = {
/* columns rows colors chars-per-pixel */
"28 21 26 1 ",
"  c None",
". c #C60000",
"X c #CF3977",
"o c #48D841",
"O c #70FF69",
"+ c #3E46C6",
"@ c #4951D7",
"# c #5C64EE",
"$ c #727AFF",
"% c #E72181",
"& c #E7518F",
"* c #F269A2",
"= c #CE3CDA",
"- c #E44BF1",
"; c #F572FF",
": c #2D8DD0",
"> c #3A9EE4",
", c #51AFEF",
"< c #78C8FF",
"1 c #FB88AF",
"2 c #FEBFA8",
"3 c #F1BFBF",
"4 c #FF9BC0",
"5 c #FFADD6",
"6 c #F794FF",
"7 c #FFE1E1",
/* pixels */
"                            ",
"     -                      ",
"    -6-           o         ",
"    -6-          oOo        ",
"    -6-         oOO2o       ",
"    -6-         oO22o**     ",
"    -6-        *5555555*    ",
"    -6-        &55555%5*    ",
"    =;6-       &55555%77.   ",
"     -66*****&X4555557773   ",
"     =;55555555545555773    ",
"      &5555555555441X33     ",
"      &555555555554X        ",
"      X455555555554X        ",
"       X5555555554X         ",
"       &4&&&&&&&4&X         ",
"      @$$@#+  ><4&,:        ",
"      @@@+++  ><>:::        ",
"              >>            ",
"                            ",
"                            "
};
