/* XPM */
static char *_6d7614d26be4209d4f0b247fb1a4a5bsVCaqQdRjbwxpFhp[] = {
/* columns rows colors chars-per-pixel */
"32 32 157 2 ",
"   c #0D0C0A",
".  c #100E0C",
"X  c #0B1407",
"o  c #091B07",
"O  c #0C1F09",
"+  c #151311",
"@  c #181713",
"#  c #1D1B17",
"$  c #211E1A",
"%  c #112F0B",
"&  c #1A2E16",
"*  c #1B3514",
"=  c #163C13",
"-  c #183D15",
";  c #1F3318",
":  c #262317",
">  c #25231E",
",  c #22281C",
"<  c #29281B",
"1  c #223717",
"2  c #24371D",
"3  c #292622",
"4  c #2C2A25",
"5  c #2E2C28",
"6  c #302D27",
"7  c #322F29",
"8  c #3A3622",
"9  c #35322C",
"0  c #39352F",
"q  c #373530",
"w  c #393631",
"e  c #3C3B33",
"r  c #403C35",
"t  c #413E39",
"y  c #154313",
"u  c #1E4714",
"i  c #164D15",
"p  c #184C17",
"a  c #1C471A",
"s  c #1A5817",
"d  c #1C5319",
"f  c #1C591B",
"g  c #20541D",
"h  c #1E641D",
"j  c #23651C",
"k  c #206D1F",
"l  c #2D4824",
"z  c #2C5B26",
"x  c #305E27",
"c  c #3B5429",
"v  c #3E4E37",
"b  c #3C5931",
"n  c #256123",
"m  c #2C6E21",
"M  c #35622B",
"N  c #386C2E",
"B  c #2F7121",
"V  c #2D7329",
"C  c #337024",
"Z  c #367C27",
"A  c #3E6239",
"S  c #414A2A",
"D  c #4E492E",
"F  c #514B2E",
"G  c #45423B",
"H  c #48443E",
"J  c #464F3F",
"K  c #5D5638",
"L  c #5F5838",
"P  c #58683C",
"I  c #6C643E",
"U  c #617A3B",
"Y  c #474440",
"T  c #494640",
"R  c #4D4944",
"E  c #514D46",
"W  c #534F49",
"Q  c #555547",
"!  c #545B47",
"~  c #56534D",
"^  c #59554F",
"/  c #5B5751",
"(  c #5D5A53",
")  c #615D57",
"_  c #625E58",
"`  c #6D6E45",
"'  c #65625B",
"]  c #69655E",
"[  c #6D6E5A",
"{  c #6B7950",
"}  c #6B6760",
"|  c #6D6A62",
" . c #726E66",
".. c #736F68",
"X. c #747067",
"o. c #76726A",
"O. c #79766D",
"+. c #7C786E",
"@. c #7E7A72",
"#. c #817E75",
"$. c #278026",
"%. c #2C832C",
"&. c #2B8B2B",
"*. c #3A852C",
"=. c #358A2D",
"-. c #2E912C",
";. c #2E9B2D",
":. c #31932C",
">. c #329D2E",
",. c #389D2E",
"<. c #338A30",
"1. c #3E8D3A",
"2. c #2E9231",
"3. c #2F9930",
"4. c #319433",
"5. c #3A9433",
"6. c #339C31",
"7. c #3A9E36",
"8. c #3C9D38",
"9. c #31A22D",
"0. c #35A331",
"q. c #3BA434",
"w. c #3CA932",
"e. c #448B31",
"r. c #56843F",
"t. c #518C3D",
"y. c #449B34",
"u. c #42A335",
"i. c #47AB36",
"p. c #4AAD36",
"a. c #47A738",
"s. c #4EAC3A",
"d. c #47B136",
"f. c #52B238",
"g. c #58B73A",
"h. c #598744",
"j. c #5F8748",
"k. c #7A996F",
"l. c #7B9272",
"z. c #838077",
"x. c #858179",
"c. c #86837A",
"v. c #87847C",
"b. c #8A867E",
"n. c #8B887F",
"m. c #8E8A82",
"M. c #908D84",
"N. c #928E85",
"B. c #938F86",
"V. c #949087",
"C. c #969289",
"Z. c #9A968D",
"A. c #9A968E",
"S. c #9C988F",
"D. c #9D9991",
"F. c #9F9B93",
"G. c #A09C94",
/* pixels */
"f.q.3.i.>.;.4.;.s.q.3.p.6.w.;.p.f.q.;.p.;.3.3.;.f.0.3.i.4.w.6.d.",
"q.4.q.4.;.;.;.;.q.4.u.4.u.V y & = a d d f h &.;.q.3.q.3.d.0.3.4.",
"s.a.f.;.>.;.;.9.s.5.C 0 } O.c.m.v.@.@.o.} ~ 4 * *.u.f.6.9.4.i.0.",
";.s.q.s.;.;.>.9.h 9 } m.M.M.m.m.v.v.v.v.#.o.} T 5 u 5.s.0.4.0.2.",
";.;.6.;.4.w.>.B Y O.A.A.V.C.m.v.v.v.v.v.v.#.O.| r 7 = :.f.w.;.i.",
";.;.;.;.d.9.&.6 o.C.D.A.V.M.#.] o.@.v.v.v.v.#.O.^ w > f 7.4.u.4.",
"9.;.;.9.9.4.m ~ m.D.A.A.V.O._ ..O...m.v.v.v.v.O...0 w + y.a.f.;.",
";.;.;.6.0.4.& O.D.D.A.C.O...] R } } l.v.v.v.v.@...R e q f s.q.p.",
"6.w.>.p.0.&.0 b.D.D.C.@./ | ( ^ O.' @.v.v.v.v.#.o.) w G o ;.g.>.",
"d.>.4.4.g.=.~ m.D.D.V.M.l.z.( | ~ | @.z.b.v.v.c.+._ w G . u.4.0.",
">.3.p.9.0.Z ' m.D.G.C.n.@.' ' w ( ' ..~ ~ #.v.v.#.' t G @ y.p.p.",
"0.6.0.4.4.h ] M.G.G.m.z.X._ ' ( 9 } ' @.v.v.v.v.c.] H G # &.q.5.",
";.;.6.;.6.j  .M.G.D.b.A.M.v.v.v.@.l.c.v.v.v.v.v.c.} H G # ,.>.i.",
";.;.;.;.d.s  .M.G.D.C.D.m.v.v.v.v.v.v.v.v.b.v.v.#.] T G + :.4.<.",
">.;.;.9.9.p X.M.G.G.D.D.m.v.v.v.v.v.v.v.v.v.v.v.O.' Y t + <.d.9.",
";.;.;.6.6.p o.m.D.D.G.A.m.v.v.v.v.v.v.v.v.v.v.c.X.' G r + -.0.4.",
"f.q.;.i.9.y X.n.S.G.G.M.v.v.v.v.v.v.v.v.v.v.v.#.| ] G r + 7.,.p.",
"8.4.u.4.>.y o.b.S.G.A.m.n.v.v.v.v.v.v.v.v.v.v.#.} } t 9 . <.3.2.",
"s.a.f.;.>.= o.c.A.G.C.M.M.c.v.v.v.v.v.v.v.v.#.O.} } w 9   :.i.0.",
";.s.q.s.>.2 o.@.A.G.M.C.M.c.v.v.v.v.v.v.b.b.#...} ] 9 7   4.0.2.",
";.;.6.;.6.* O.o.A.G.M.A.M.v.v.v.v.v.v.v.v.v.#. .] ] 6 5 X q.;.i.",
";.;.;.;.d.1 O.| V.G.M.A.M.b.v.v.v.v.v.v.v.#.O.| ] ' 4 7 O 4.u.4.",
">.;.;.9.>.= +.] n.A.M.C.V.n.v.v.v.v.v.v.v.#.o.] ] _ > 9 % a.f.;.",
";.>.;.9.7.y +.' #.C.V.C.M.n.v.v.v.v.v.v.#.O.o.' } ~ $ 5 y s.q.s.",
"4.w.;.p.7.i o.' o.M.C.V.M.c.c.v.v.v.c.c.@.o...( ) ~ $ 4 g ;.g.,.",
"d.9.3.<.g.n  .' X.M.C.C.M.n.c.c.b.v.v.#.o.o.( ~ ( E $ 4 b k.l.7.",
">.4.s.j.P < ' ' X.M.C.C.M.M.b.b.c.c.z.o.o.} ~ Q E ~ # 6 q P M u.",
"0.t.` ` L : ( ] ^ ] b.C.V.V.b.c. .H R ' ' R Q H T H # $ y z 5.8.",
"8.` I I D 8 Q ' q R ( #.b.x.^ | ' 1 4 H e 5 / 0 e q 3   h k :.d.",
">.{ I K I F e / M S 9 Q X.[ A R ! z h w v , T l c l z d i.;.&.4.",
">.3.h.U h.N y.*.s.y.e.<.1.1.u.:.:.$.;.-.=.%.i.6.y.a.f.;.9.4.p.q.",
";.;.;.6.>.3.0.2.;.s.q.d.0.;.0.-.;.;.;.9.6.>.0.6.4.s.q.s.0.6.0.2."
};
