/* XPM */
static char *_77dfb10f1b94cdf94b61d9ec06ce7c56t49vmshMqGim8TD[] = {
/* columns rows colors chars-per-pixel */
"25 24 123 2 ",
"   c #914423",
".  c #9B522D",
"X  c #A5592B",
"o  c #AA5E2D",
"O  c #A05E3E",
"+  c #AC612D",
"@  c #B2662D",
"#  c #AA6235",
"$  c #AB663B",
"%  c #AE683D",
"&  c #B16630",
"*  c #B46932",
"=  c #B96D33",
"-  c #BD7134",
";  c #C27636",
":  c #C57837",
">  c #C77A38",
",  c #CA7D39",
"<  c #AC6941",
"1  c #A76A4B",
"2  c #A86D4E",
"3  c #B16D43",
"4  c #B2734C",
"5  c #A76E51",
"6  c #AA7254",
"7  c #AC775B",
"8  c #AF7E63",
"9  c #B17F64",
"0  c #C37C45",
"q  c #CE813B",
"w  c #D4853C",
"e  c #D7883D",
"r  c #DA8B3F",
"t  c #BC835E",
"y  c #B38265",
"u  c #B98463",
"i  c #B4866C",
"p  c #B68B71",
"a  c #BB957C",
"s  c #CE8341",
"d  c #C3814D",
"f  c #D78B44",
"g  c #DD8D40",
"h  c #D7904F",
"j  c #C38453",
"k  c #E39443",
"l  c #E89744",
"z  c #E99945",
"x  c #E7994A",
"c  c #EB9C4C",
"v  c #E49B53",
"b  c #EB9F51",
"n  c #ECA155",
"m  c #EDA55B",
"M  c #EEA85F",
"N  c #D19564",
"B  c #CB9A73",
"V  c #C79A7A",
"C  c #D8A67C",
"Z  c #EAA664",
"A  c #EFAA63",
"S  c #EEAC6A",
"D  c #F0AC66",
"F  c #F1AE6A",
"G  c #F2B06D",
"H  c #E5A972",
"J  c #EDAF73",
"K  c #EFB57C",
"L  c #F3B575",
"P  c #F3B679",
"I  c #F4BA7C",
"U  c #C19C82",
"Y  c #C4A085",
"T  c #C5A48A",
"R  c #D9AF89",
"E  c #CEAE92",
"W  c #D1B295",
"Q  c #D8B594",
"!  c #D2B59A",
"~  c #D7BC9F",
"^  c #F5BE84",
"/  c #F7C084",
"(  c #F7C48D",
")  c #F9C58B",
"_  c #FAC88E",
"`  c #EFC79C",
"'  c #F3C697",
"]  c #FCCC94",
"[  c #FCCE9A",
"{  c #FCD19D",
"}  c #DBC1A5",
"|  c #DEC6A9",
" . c #E1CAAC",
".. c #F5CEA2",
"X. c #FCD4A3",
"o. c #FBD7AA",
"O. c #FCD9AB",
"+. c #E4CEB1",
"@. c #E6D1B3",
"#. c #EAD5B7",
"$. c #EEDABC",
"%. c #F7DBB6",
"&. c #FCDDB4",
"*. c #F0DDBF",
"=. c #FADEB8",
"-. c #F9DFBB",
";. c #FCE1B9",
":. c #FCE2BC",
">. c #FCE4BF",
",. c #F2DFC1",
"<. c #F5E1C1",
"1. c #F5E3C4",
"2. c #FCE5C1",
"3. c #FCE6C2",
"4. c #FAE7C6",
"5. c #FCE7C4",
"6. c #FCE8C6",
"7. c #FDE9C7",
"8. c #F9E9CA",
"9. c #FCEBCA",
"0. c #FBEBCC",
"q. c #FCECCC",
"w. c #FCEDCE",
/* pixels */
"=.o.X.[ X.] ] ] / n A c g < E :.o.[ H > a 4.>.&.I ",
"k ^ ] ] ] ) F I A z l q p ,.' S G k r r V I K L n ",
"t n L ] ) A M b n v w 4 %.Z w @ 2 i u = @ * v n c ",
"*.0 n c M z n z ; 4 : @ > $ ! $.0.q.o.M c g + w h ",
"q.} q A A n k %  .9.A m X ! 0.0.5.;.{ { n m l = . ",
"q.q.E * > > 6 $.5.&.F l X 0.q.&.{ { o.] I G l e U ",
"q.w.w.1.+.+.8.5.X.{ A M ; ~ q.X.] ] ] ] ) l l , N ",
"q.q.2.&.&.&.X.] X.] D m z @ @.;.o.] { X.] A G l + ",
"0.0.X.X.{ o.] ] ] ] L c c r Y 8.] X.] ] ] L z M > ",
"w.%.L G G L A F L M b x n r U 2.] ] ] ] ] _ D l l ",
"w.S c b n n m m M z l m k # R ^ x M A A M m n l l ",
"d # 2 2 o + * ; q q > & 9 E X : f x c n n m x l = ",
" .<.0.q.] n q E | |  .<.q...k e X 1 * , e e > $ ~ ",
"q.7.o.{ ) n 4 8.q.q.q.7.&.{ F n w V $.} E B C ` ^ ",
"q.2.{ { G v T q.q.5.o.{ [ { F m c : y { A v * # X ",
"q.O.] ] A s | q.o.[ { ] ] ] I A l l - > - y | { k ",
"q.&.[ ^ c : @.>.] ] ] ] ] I m c n l e   W w.w.;.x ",
"q./ n x z ,  .&.X.] ] ] ] m c c b l @  .w.w.;.[ A ",
">.m k x n r V ( ] ] ] ] ] m n l z e Y 0.0.{ X.] I ",
"+ O 8 7 * r o n I ^ ] ^ m m l x r 6 3.0.;.{ ] { ) ",
"@.0.0.0.<.V X = n m A m c c x k X Y 0.;.] { { ] ] ",
"0.0.0.o.{ J x : = k n n n l k o f y 0.{ { ] ] ] ) ",
"w.7.X.{ A n c k X % @ : : - y H n j Q A I ] / I m ",
"0.3.X.A M n q 5  .K : |  .#.0.] M l @ , l n M m c "
};
