/* XPM */
static char *_d4bb8039bef4c3fede47f0766d83b3dQccxkoHYgFkwZYo1[] = {
/* columns rows colors chars-per-pixel */
"24 24 80 1 ",
"  c #010000",
". c #220D02",
"X c #251307",
"o c #251308",
"O c #371B08",
"+ c #351B0E",
"@ c #3E1D0A",
"# c #301A10",
"$ c #3A2415",
"% c #3C2817",
"& c #482207",
"* c #4F2609",
"= c #512405",
"- c #522709",
"; c #542809",
": c #5A2B0A",
"> c #5C2C09",
", c #5E2D0B",
"< c #412511",
"1 c #4C2910",
"2 c #562F13",
"3 c #602E0B",
"4 c #64310D",
"5 c #6C350E",
"6 c #6D350E",
"7 c #74390F",
"8 c #7F3C0D",
"9 c #653D1C",
"0 c #753910",
"q c #593B20",
"w c #614325",
"e c #6A4625",
"r c #505050",
"t c #5B5B5B",
"y c #656565",
"u c DimGray",
"i c #747474",
"p c #767777",
"a c #7C7C7C",
"s c #803D0D",
"d c #803F11",
"f c #8A430F",
"g c #834112",
"h c #844212",
"j c #884413",
"k c #8B4412",
"l c #8A4413",
"z c SaddleBrown",
"x c #8D4613",
"c c #8B4514",
"v c #8C4716",
"b c #8F4916",
"n c #8C4819",
"m c #8E4919",
"M c #8F4A19",
"N c #8E4B1C",
"B c #8E4F22",
"V c #905123",
"C c #955323",
"Z c #925426",
"A c #925526",
"S c #945627",
"D c #955627",
"F c #965C2E",
"G c #975C2E",
"H c #985E2F",
"J c #965E30",
"K c #985E30",
"L c #92653A",
"P c #976C3F",
"I c #9C693A",
"U c #9E6A3C",
"Y c #9F6B3C",
"T c #A06B3C",
"R c #9E7143",
"E c #A07041",
"W c #A17041",
"Q c #A37343",
"! c #A57342",
"~ c #8D8D8D",
/* pixels */
"xzvEVzzZEfzcIJzzN!NbvFT8",
"xzvEVzzZEfzcIJkzN!M-+$$#",
"xzvEVzzZEfxcIJkzNEM@pit~",
"xzvEVzzZEfxcIFkzNWM@uyra",
"xzvEVzzZEfzcIJzzNQM4>9e=",
"xzvEVzzZEfzcIJzzNQnbvKTs",
"xzvEVzzZEfzcIJkzNEnkxGIs",
"xzvEVzzZEfccIFkzNEnxkGIs",
"xvvEVxxZEfzcIJkzNQnvkFUs",
"xxbWVvxZWfzcIJkzNQMvxFI8",
"xg:w2-5ZWfxkIJkzNEnzkFU8",
"xg,. &7SWfxvIJkzNWnzzFUs",
"xx7q14dZWfzcIJkzNQnxvFUs",
"xgXRC-:SWfzcIJkzNQMvkHUs",
"vdOPB;3SWfzcIJkzNEnckFUs",
"xxg<X5kZWfzcIJkzNEnkxGUs",
"xxvLnjcZEfxcIJkzNEnzzFU8",
"xkcEBccZEfxcIJkzNEnzzFU8",
"xkcEVzcZEfzcIJkzNQnxzHU8",
"xxnRVzcZEfzcIJkzNQMvzFU8",
"xzvTVzzZEfxxIFzzNEnczGIs",
"xznRVzzZEfxxIFzzNWnkzFIs",
"xznRVzzZEfzxILzzNQnkkGUs",
"xzzRVzzZIfzxIFzzNQnvkGUs"
};
