/* XPM */
static char *result[] = {
/* columns rows colors chars-per-pixel */
"32 32 45 1 ",
"  c #4C6971",
". c #463A1E",
"X c #957332",
"o c #79642B",
"O c #6F602B",
"+ c #595324",
"@ c #302816",
"# c #1D1007",
"$ c #2D1F0F",
"% c #947530",
"& c #8C702F",
"* c #6BA03B",
"= c #47682C",
"- c #C6A06B",
"; c #A9875A",
": c #FCB03B",
"> c #010102",
", c #D58A23",
"< c #F9B038",
"1 c #FEC372",
"2 c #F8B03E",
"3 c #FDAF3E",
"4 c #D98A26",
"5 c #080404",
"6 c #FEB641",
"7 c #DF942C",
"8 c #FCB94E",
"9 c #D38B29",
"0 c #78BF3F",
"q c #ECA234",
"w c #D49237",
"e c #60992D",
"r c #BD8539",
"t c #442E16",
"y c #755025",
"u c #5C3D1D",
"i c #FDBE60",
"p c #FECD83",
"a c #90632B",
"s c #A67432",
"d c #E9AD4E",
"f c #D39D48",
"g c #E3B87A",
"h c #866A47",
"j c #82C04F",
/* pixels */
"**e*eeee**e*e*e***e*eeee**e*e*e*",
"eeeeeeeeeeee*eeeeee=eeeeeeee*eee",
"***eeeee***eee*e**eeeeee***eee*e",
"e*e*eeeee*e*eeeeee==eeeee*e*eeee",
"eeeee*e*ee0e**e*ee=ee*e*ee0e**e*",
"eeee*eee*eeeeeee*eee*eee**eeeeee",
"eeeeeee%fdfh**e*0=eeee*ee******e",
"eeeeeew6wwwfO==*0+h-g-h*eeeee*e*",
"e*e*e7qr2:ddi8i;e=h;--d8d%eeee0e",
"*eeewqwi6qd::::8Xq6dg8:wq6re**ee",
"ee*r:wi8:f:i8:::dq::8f::qq:re***",
"eeo<wd8:<q316:::6q:6i8d::q::seee",
"eew:w:::w:8i:::::q::i:f:::q:<oe*",
"eo:qq:::q:ii:::::q::83:7::q::ree",
"er:w::::w:i8:::::q:::::q::<q:<ee",
"eq:7:::q7:i8:::::2q::::q2::q::re",
"=<:7:::7q:::::::::q::::2q::q::w*",
"o<<w:::w7:::::::::q:::::q::q2:qe",
"o<<9:::w7:::::::::q:::::w:::q::=",
"oqq7:::w7:::::::::7:::::w:::w:3=",
"=qq9:::q7:::::::::7:::::w:::w:qe",
"erq9:::<9:::::::::7::::<9:::9:9e",
"eO4r::::r<::::::::w::::q9::q9:&e",
"ee&sq:::rq::::::::9::::97::r79e*",
"e*e=9:::99:::::::q9:::<rq:qase0e",
"*eee&7::<s7::::::q7:::7,<qs=**ee",
"ee*ee&7<:7sq<:::<94<q9s,,aeee***",
"eeeeee=s94,ss7qq4s,,sa9aOeeeeeee",
"eeeee*e*=oOo+O&sasa+=o=***e*e*e*",
"eeee*eeeeeee*eeeeeee*eeeeeee*eee",
"eeeeee*e***eee*eeeeeee*e***eee*e",
"eeeeeeeee*e*eeeeeeeeeeeee*e*eeee"
};
