/* XPM */
static char *_b79ec232f3c437cec499fd81d353958W6Tkm3w9ojAq3alX[] = {
/* columns rows colors chars-per-pixel */
"25 24 28 1 ",
"  c None",
". c #045437",
"X c #085E3A",
"o c #0A6F35",
"O c #277E46",
"+ c #94571F",
"@ c #9D5D20",
"# c #A46222",
"$ c #B46924",
"% c #BB6C23",
"& c #BB6C24",
"* c #BC6D24",
"= c #C27124",
"- c #C37124",
"; c #CA7425",
": c #CA7426",
"> c #CE7628",
", c #CE7728",
"< c #CF7728",
"1 c #996E46",
"2 c #5A8D7B",
"3 c #A88563",
"4 c #A98564",
"5 c #B09172",
"6 c #9DBBB0",
"7 c #C1A790",
"8 c #C9B29E",
"9 c #E0D3C8",
/* pixels */
"           6o6           ",
"           2X2           ",
"            .O           ",
"            .O           ",
"      4>>==;@+;= %       ",
"     ;>>=>>>=$>>>=>      ",
"    >>>>>>>>;*>>>>;>     ",
"   >>>>>>>>>>=>>>>>><    ",
"  >>>>>>>>>>>>>>>>>>>    ",
"  >>>>>>>>>>>>>>>>>>>>   ",
" 4>>>>>>>>>>>>>>>>>>>>   ",
" ;>>>>>>>>>>>>>>>>>>>>>  ",
" >>>>>>>>>>>>>>>>>>>>>>  ",
" >>>>>>>>>>>>>>>>>>>>>>> ",
" >>>>>>>>>>>>>>>>>>>>>>> ",
" >>>>>>>>>>>>>>>>>>>>>>> ",
" ;;>>>>>>>>>>>>>>>>>>>>; ",
" 7=>>>>>>>>>>>>>>>>>>>;  ",
"  4>>>;>>>>>>>>>>>;>>>*  ",
"  9>>>;>>>>>>>>>>>;>>>   ",
"   8;&;>>>>>;>>>>>=>>4   ",
"      1>>>>>=>>>>=+5     ",
"       8;>>>#&>>4        ",
"                         "
};
