/* XPM */
static char *_a8318a02d354fbfecf05d5f283ad7c9XQSyMudbJS3Zz16S[] = {
/* columns rows colors chars-per-pixel */
"29 24 15 1 ",
"  c #493E37",
". c #6E3612",
"X c #6F6157",
"o c #E7E6E6",
"O c #9D5728",
"+ c white",
"@ c #0C0805",
"# c #332218",
"$ c #7F7265",
"% c #B67130",
"& c #A65E2B",
"* c #5C5048",
"= c #84461D",
"- c #C4C3C2",
"; c #9E9B99",
/* pixels */
"  **  #     **XX**$$X*     **",
"      # X$XX*XXXXXX*X*# *# *X",
"*      XX$%&OOX*X***** X$ ## ",
"X*     X%%%%%%%&O%%%%%&X$*** ",
"$$*#X O%%%%%%%%%&%%%%%%&XXXX*",
"XXX*$$%%%%%%%%%%&%%%%%%%&X*  ",
"   **%%%%%%%%%%%%%%%%%%%%X # ",
"    &%%%%%%%%%%%%%%%%%%%%& * ",
"   .%%%%%%%%%%%%%%%%%%%%%%XX*",
"#  O%%%%%%%%%%%%%%%%%%%%%%&  ",
"***&%%%%%%%%%%%%%%%%%%%%%%%* ",
"$XX%%%%%%%%%%%%%%%%%%%%%%%%O ",
"$X*%%%%%%%%%%%%%%%%%%%%%%%%% ",
"$ *%%%%%%%%%%%%%%%%%%%%%%%%%*",
"X *%%%%%%%%%%%%%%%%%%%%%%%%%X",
"   &%%%%%%%%%%%%%%%%%%%%%%%&*",
"   O%%%%%%%%%%%%%%%%%%%%%%%& ",
"   *O%%%%%%%%%%%%%%%%%%%%%%* ",
"*## X%%%%%%%%%%%%%%%%%%%%%=  ",
" #   O%%%%%%%%%%%%%%%%%%%&   ",
"      O%O%%%%%%%%%%%%&%%%* #X",
"XX*    *=O%%%%%&%%%%%OO$X *X ",
"$$XXX**$XX=&%%%=O%%OX$* **X* ",
"$$*XX X$XX*** *XXXX  *   *   "
};
