/* XPM */
static char *c7f2317e5d0b4c19edbf31b844074ff5fRHJTrkorLIDv6ee[] = {
/* columns rows colors chars-per-pixel */
"21 27 22 1 ",
"  c None",
". c #C60000",
"X c #E47000",
"o c #A52A5D",
"O c #CF3977",
"+ c #48D841",
"@ c #70FF69",
"# c #FFAF00",
"$ c #E72181",
"% c #E7518F",
"& c #F269A2",
"* c #CE3CDA",
"= c #E44BF1",
"- c #F572FF",
"; c #3A9EE4",
": c #78C8FF",
"> c #FB88AF",
", c #FEBFA8",
"< c #FF9BC0",
"1 c #FFADD6",
"2 c #F794FF",
"3 c #FFE1E1",
/* pixels */
"                     ",
"         =           ",
"        =2=          ",
"        =2=          ",
"        =2*          ",
"        *2*          ",
"        *-*          ",
"        *--*         ",
"      +O<111O X      ",
"     +@+<<<<<X#X     ",
"     +,@+>>>X#,X     ",
"     +,@&&&&&#,X     ",
"     &111111111&     ",
"     &11$111$11%     ",
"     %11$333$11%     ",
"     %<133.331<O     ",
"      %<33333<%      ",
"      oOOOOOOOo      ",
"      O>>>>>>>O      ",
"      %<<<<<<<%      ",
"       %1%%%1%       ",
"       %<% %1%       ",
"       ;:; %1%       ",
"        ;; %<%       ",
"           ;:;       ",
"           ;;        ",
"                     "
};
