/* XPM */
static char *_3bc84c664ad4cdbdbd27ebdbebccabfnQO1uVpe6SZTocTS[] = {
/* columns rows colors chars-per-pixel */
"32 32 54 1 ",
"  c #2D992D",
". c #2D9A2D",
"X c #2E9B2D",
"o c #2E992E",
"O c #2E9C2D",
"+ c #2F9D2D",
"@ c #2F9F2D",
"# c #339C2E",
"$ c #319E2E",
"% c #309E2F",
"& c #339F2F",
"* c #349F2F",
"= c #2E9231",
"- c #2F9930",
"; c #309731",
": c #319532",
"> c #319632",
", c #309134",
"< c #329534",
"1 c #329B31",
"2 c #339932",
"3 c #319C30",
"4 c #339C31",
"5 c #339E30",
"6 c #369F32",
"7 c #319834",
"8 c #399A37",
"9 c #389F34",
"0 c #3A9E37",
"q c #31A22D",
"w c #36A132",
"e c #34A332",
"r c #37A530",
"t c #37A134",
"y c #39A632",
"u c #3CA336",
"i c #3BA536",
"p c #3CA932",
"a c #41A435",
"s c #41AB33",
"d c #47AC36",
"f c #49AB35",
"g c #4BA937",
"h c #49AC35",
"j c #4AAF36",
"k c #47A738",
"l c #4FAB3A",
"z c #4DAD3A",
"x c #4DAD3B",
"c c #47B136",
"v c #52B038",
"b c #50B238",
"n c #55B639",
"m c #58B73A",
/* pixels */
"vy h@ 1 vr h4p4jvy h@ 1 vy f1p$j",
"07a<@ @ 0<a<cw-,07a<@  @0<a<c4#,",
"zkv $  qzkv @-dwzkv $ @@zkv --dr",
" liz $ 5 lux54e= ziz @ w zizw-w=",
"@ 1 4p#h9 n$vy h$ 5 1p4h9 m4vy d",
"@  @cw-=ns>u07a<@  @j5-=ns-uu<a<",
"$  q%<drtghfzdv $  q-1drwghhzkb ",
" @@4w-r=1>i8 luz @ 5w4w=>-i8 lix",
"1p$h9 m*$ 1 0 n*1p*j0 n$$ 5 0 nq",
"c41,np>t@ @ ns>tc*1,ns>u@  @ns,u",
"--drwlhh$  q5ljh$>dqwfjh$  q5fhh",
"w4w=71i8 $ *21i851w=2>i8 $ 521i8",
"@ 1 1p4jvy h1p$hq 1 4p$hvy h2p$h",
"@ @ c*-=01a<c4-,@   c4-,07a<jw1,",
"$  q$>drzkv @-dw$ @q@>fqzdv --dq",
" @@454w= luxw4e= $ 5w4t, xixw4w>",
"vy h@ 4 vi f1p4jvy h@ 1 vy f1p$h",
"07a<  @ 07a<cw-=07a<@  @0<a<jw-=",
"zdv $ @qxdv @-drzkv $ @@zkv --dr",
" xuz @ w lux51w= lix @ w zixw4w=",
"$ 5 4p$h9 m5vy h@ 5 1p1h9 m4vy h",
"  @ c4-,np,u07a<@  @j51=ns-u07a<",
"$  q-1dywgjhzkv $  q--drwghhzkb ",
" $ 55#w=2 i8 liz $ 5w4e=>-i8 lix",
"4p1hu mw@ 1 0 m*1p*j0 m$$ 1 0 nq",
"j5-=np>w@  @ns=uh$1<ns>w@ @ ns,u",
"%-drwghh$ #qwfhf-1dqwfjh$  q5ghh",
"w4w=1>i8 @ 51>i8w4w=2>i8 $@42#i8",
"@ 1 1p#dlp-f4p$x@ 1 4p$xbp h1p$h",
"@  @jw-=0-i<c4 =@ @ c4-=07a<jw-=",
"$  q%<drxgv @>dr$  q@>drxkv -1dr",
" @@4w-r= lix51w= @@4w-w= lixw-t="
};
