/* XPM */
static char *f660a50489a34873ddea6745ff3acb0aKQ22G7fA1PJPsrbE[] = {
/* columns rows colors chars-per-pixel */
"26 24 15 1 ",
"  c #493E37",
". c #6E3612",
"X c #6F6157",
"o c #E7E6E6",
"O c #9D5728",
"+ c white",
"@ c #0C0805",
"# c #332218",
"$ c #7F7265",
"% c #B67130",
"& c #A65E2B",
"* c #5C5048",
"= c #84461D",
"- c #C4C3C2",
"; c #9E9B99",
/* pixels */
"* *XXXXX* # # X ***XXX**# ",
"XX*XX     XXX$X**XXXX*  XX",
"*$*      *XXXX*$* XX*  *$X",
" * ##  ##  *  X$X    **   ",
"#   * **#     *XX*   *X#*X",
" # X$$$X $*            X$$",
"  $$XX* *XXX* #    *   *X ",
"  **     #  **   *$X*X *  ",
"*  # X$X **$$XXXX**XXX XX ",
"X   *$X* X X$$$$$X  *  $$X",
"** * X*# X *XXX$$X#  * XXX",
"* *X*#*  X*      *#*$X    ",
"  X$X*$* * #       XX*   #",
" X$X*$$X#   #      **  #**",
"  **XX**## **#   ##    *$*",
"    *    *X$X******    $$*",
"     ##* *X$$X*$XXXX X**$X",
"X*X$*X#X  X$$X*XX  **X *$$",
"* X$*X *  XXXX  *   *   *X",
"#    XX      * #  #   #   ",
"        #        #*   *   ",
" **  #  *X     *  XXXX**  ",
" X$XX  *X$  XX$$* *$XXXXXX",
" XX*** XXX* X$$XX   **$$X$"
};
