/* XPM */
static char *e3e3045b8dba408ffe54da958fed82962UZMV2HtAtRaCACC[] = {
/* columns rows colors chars-per-pixel */
"24 24 79 1 ",
"  c None",
". c #552C42",
"X c #562C42",
"o c #673042",
"O c #673142",
"+ c #6C3244",
"@ c #6C3245",
"# c #6D3644",
"$ c #6E3644",
"% c #6E3744",
"& c #743442",
"* c #763543",
"= c #793543",
"- c #7D3743",
"; c #7E3742",
": c #7E3743",
"> c #7F3743",
", c #793644",
"< c #7C3744",
"1 c #7E3744",
"2 c #7B3944",
"3 c #7F3845",
"4 c #7D3A45",
"5 c #7F3C44",
"6 c #7E3D45",
"7 c #7A4046",
"8 c #7A4146",
"9 c #7B4246",
"0 c #934D3A",
"q c #9D5338",
"w c #A85935",
"e c #AC5B34",
"r c #AD5B35",
"t c #AF5B35",
"y c #AD5A36",
"u c #AD5C34",
"i c #AE5C34",
"p c #AF5D37",
"a c #AC5938",
"s c #AD5938",
"d c #AD5B38",
"f c #AE5A39",
"g c #AD5B3A",
"h c #AE5C39",
"j c #B25D34",
"k c #B05E37",
"l c #B4583A",
"z c #B5583A",
"x c #B15E39",
"c c #B05F3C",
"v c #B95E3D",
"b c #BE6530",
"n c #BF6530",
"m c #BE6531",
"M c #C0662F",
"N c #C1672F",
"B c #C2672E",
"V c #C3672E",
"C c #C06631",
"Z c #C26832",
"A c #803843",
"S c #823945",
"D c #853F45",
"F c #8A3B46",
"G c #8D3C44",
"H c #8C3C45",
"J c #913D43",
"K c #814045",
"L c #864245",
"P c #884446",
"I c #8A4447",
"U c #8B4547",
"Y c #894647",
"T c #8A4747",
"R c #974A48",
"E c #974A49",
"W c #9C4E48",
"Q c #A3574B",
"! c #BD6340",
/* pixels */
"   00B            C00   ",
"   XXr            rXX   ",
"  Zooj            jooC  ",
"0XoJJ&XX        XX&JJoX0",
"0XoJJ&XX        XX&UJoX0",
"Brj&&KYYh0m!!gquTYS&&rrB",
"   XXDJJ..8JJ@XXJJ-XX   ",
"   XXDJJ..8JJ@XXJJ-XX   ",
"     eXXQWI..YWEXXu     ",
"     qXXWJSX.1JHXXq     ",
"     h%%US4%$,SA$$g     ",
"     vJJ.X9JJ@XXJJz     ",
"     vJJXX9JJ@XXJJz     ",
"     g@+PA2+@*11+@r     ",
"     qXXWJAXX-JHXXq     ",
"     eXXRG-XX-HFXXw     ",
"   ..LJJXX8JJ@XXJJ-XX   ",
"   ..DJJXX8JJ@XXJJ-XX   ",
"nrj&&SA1rqxzzgqw-A=&&rrB",
"0XoJJ&XX        XX&JJoX0",
"0XoJJ&XX        XX&JJoX0",
"  Coor            roon  ",
"   XXu            rX.   ",
"   00N            Z00   "
};
